<svg width="373" height="280" viewBox="0 0 373 280" fill="none" xmlns="http://www.w3.org/2000/svg">
<path d="M187.485 0.630227C179.67 2.0599 171.854 6.25359 166.278 11.9723C160.703 17.6433 157.605 23.2666 155.413 31.8447C155.27 32.4642 155.032 37.9446 154.936 43.9968L154.698 55.0053L152.506 54.5764C148.646 53.8616 136.589 54.2428 132.3 55.2436C122.387 57.531 112.284 63.9169 104.898 72.5426C103.325 74.3535 101.419 76.8792 100.609 78.1659L99.2269 80.4057L96.7964 76.9269C93.8418 72.6855 86.9794 66.109 82.4521 63.0591C77.6865 59.9138 72.2538 57.2928 67.3453 55.8154C63.3898 54.624 62.3414 54.5287 54.24 54.4811C44.3753 54.4334 42.2308 54.6717 37.0839 56.435C23.9787 60.8669 13.3038 70.2074 6.39373 83.3127C1.19927 93.1298 -0.325709 100.23 0.0555356 113.622C0.246158 121.628 0.43678 123.2 1.77114 128.395C4.48751 139.26 8.10933 147.028 15.2577 157.751C22.7873 169.045 29.0778 176.718 38.7042 186.392C49.1885 196.876 53.954 201.022 80.9271 223.087C87.8848 228.758 93.9847 233.762 94.509 234.238C97.416 236.669 100.371 237.288 102.992 235.954C104.278 235.286 115.906 225.994 118.051 223.944C118.432 223.611 122.149 220.466 126.343 217.034C130.537 213.603 138.638 206.741 144.261 201.832L154.555 192.825L154.841 219.417C154.984 235.954 155.27 246.629 155.603 247.677C157.367 253.491 159.416 258.066 161.894 261.688C167.279 269.503 175.714 275.222 186.246 278.129C188.533 278.748 198.112 278.891 260.589 279.034C312.962 279.13 333.55 279.034 336.838 278.653C347.322 277.366 356.091 272.839 362.953 265.119C366.432 261.259 368.529 257.875 370.435 253.157C373.199 246.2 373.056 251.442 372.961 137.116L372.818 32.0353L371.674 28.6994C369.815 23.1713 368.1 19.8354 365.002 15.7371C361.333 10.8285 356.186 6.68249 350.515 3.96612C341.794 -0.227575 349.466 0.15367 265.593 0.0107035C202.544 -0.0369521 190.678 0.0583592 187.485 0.630227ZM338.792 19.6925C345.082 21.551 349.609 25.3158 352.278 30.8439L353.755 33.9415V139.308V244.627L351.945 248.249C350.086 252.109 346.417 255.969 343.081 257.637C338.124 260.163 341.985 260.067 264.211 260.067C186.77 260.067 189.677 260.163 184.864 257.732C182.052 256.303 178.002 252.347 176.524 249.583C173.713 244.389 173.856 251.108 173.856 139.737C173.856 48.6194 173.951 36.9438 174.618 34.4181C176.048 28.7947 179.622 24.3151 184.816 21.5987C186.675 20.5979 189.058 19.6448 190.154 19.4542C191.298 19.2159 224.609 19.0253 264.211 18.9776C329.118 18.93 336.457 19.0253 338.792 19.6925Z" fill="black"/>
<path d="M245.101 57.817C244.338 58.1982 237.809 64.3458 230.709 71.4941L217.699 84.4565L211.885 78.6425C205.785 72.5902 204.593 71.8277 201.448 71.8277C199.923 71.8277 199.256 72.1613 197.683 73.734C196.111 75.3066 195.777 75.9738 195.777 77.5464C195.777 78.5948 196.063 80.1675 196.444 81.0253C196.826 81.8831 201.067 86.458 205.88 91.2236L214.649 99.9445H217.365C219.891 99.9445 220.177 99.8016 222.798 97.6094C227.754 93.4157 253.393 67.3481 253.917 65.9661C256.014 60.2951 250.391 55.1006 245.101 57.817Z" fill="black"/>
<path d="M268.595 70.1122C262.304 72.8762 261.637 81.5019 267.404 84.9331L269.5 86.1245H298.523C325.734 86.1245 327.688 86.0291 329.499 85.219C335.837 82.3597 335.98 73.6863 329.689 70.4934L327.593 69.445L298.713 69.4926C277.411 69.4926 269.548 69.6833 268.595 70.1122Z" fill="black"/>
<path d="M245.816 121.199C244.815 121.628 238.953 127.061 231.042 134.971L217.937 148.077L212.218 142.31C209.073 139.165 205.928 136.258 205.213 135.877C201.067 133.685 195.777 136.83 195.777 141.453C195.777 144.598 197.493 146.838 206.5 155.416C214.935 163.517 215.316 163.803 217.222 163.803C218.318 163.803 219.653 163.565 220.224 163.279C221.702 162.516 252.869 131.445 253.726 129.872C255.347 126.822 254.012 122.962 250.867 121.39C248.484 120.246 248.008 120.246 245.816 121.199Z" fill="black"/>
<path d="M267.975 134.257C265.354 135.543 263.829 137.974 263.543 141.167C263.305 144.264 264.497 146.742 267.118 148.553L268.881 149.745L297.713 149.888C313.582 149.983 327.307 149.888 328.164 149.745C330.261 149.363 333.264 146.409 333.978 143.931C335.075 140.261 333.454 136.401 329.928 134.4L328.021 133.303H298.952C270.882 133.303 269.834 133.351 267.975 134.257Z" fill="black"/>
<path d="M244.338 186.154C243.194 186.916 236.713 193.064 229.994 199.878L217.699 212.221L212.6 207.027C205.928 200.307 204.498 199.354 201.353 199.688C199.351 199.878 198.684 200.164 197.35 201.642C196.063 203.024 195.777 203.738 195.777 205.502C195.777 206.693 196.111 208.361 196.54 209.219C197.588 211.268 211.17 225.041 213.839 226.756C216.364 228.376 218.032 228.472 220.463 227.233C222.75 226.041 253.25 195.446 253.917 193.683C255.061 190.538 253.917 187.393 251.105 185.82C248.627 184.438 246.912 184.486 244.338 186.154Z" fill="black"/>
<path d="M269.024 198.353C266.546 199.211 265.068 200.689 264.115 203.214C262.495 207.456 264.354 212.078 268.309 213.603C270.168 214.27 273.456 214.366 299.428 214.223C327.783 214.08 328.546 214.032 330.166 213.079C334.693 210.41 335.646 204.501 332.168 200.593C329.451 197.591 330.214 197.639 299.095 197.639C276.41 197.686 270.453 197.829 269.024 198.353Z" fill="black"/>
</svg>
